HIERARCHY
ROOT root
{
	OFFSET 0.000000 0.000000 0.000000
	CHANNELS 6 Xposition Yposition Zposition Zrotation Yrotation Xrotation
	JOINT lhip
	{
		OFFSET 0.058581 -0.082280 -0.017664
		CHANNELS 3 Zrotation Yrotation Xrotation
		JOINT lknee
		{
			OFFSET 0.043451 -0.386469 0.008037
			CHANNELS 3 Zrotation Yrotation Xrotation
			JOINT lankle
			{
				OFFSET -0.014790 -0.426874 -0.037428
				CHANNELS 3 Zrotation Yrotation Xrotation
				JOINT ltoe
				{
					OFFSET 0.041054 -0.060286 0.122042
					CHANNELS 3 Zrotation Yrotation Xrotation
					End Site
					{
						OFFSET 0.000000 0.000000 0.000000
					}
				}
			}
		}
	}
	JOINT rhip
	{
		OFFSET -0.060310 -0.090513 -0.013543
		CHANNELS 3 Zrotation Yrotation Xrotation
		JOINT rknee
		{
			OFFSET -0.043257 -0.383688 -0.004843
			CHANNELS 3 Zrotation Yrotation Xrotation
			JOINT rankle
			{
				OFFSET 0.019056 -0.420046 -0.034562
				CHANNELS 3 Zrotation Yrotation Xrotation
				JOINT rtoe
				{
					OFFSET -0.034840 -0.062106 0.130323
					CHANNELS 3 Zrotation Yrotation Xrotation
					End Site
					{
						OFFSET 0.000000 0.000000 0.000000
					}
				}
			}
		}
	}
	JOINT lowerback
	{
		OFFSET 0.004439 0.124404 -0.038385
		CHANNELS 3 Zrotation Yrotation Xrotation
		JOINT upperback
		{
			OFFSET 0.004488 0.137956 0.026820
			CHANNELS 3 Zrotation Yrotation Xrotation
			JOINT chest
			{
				OFFSET -0.002265 0.056032 0.002855
				CHANNELS 3 Zrotation Yrotation Xrotation
				JOINT lowerneck
				{
					OFFSET -0.013390 0.211636 -0.033468
					CHANNELS 3 Zrotation Yrotation Xrotation
					JOINT upperneck
					{
						OFFSET 0.010113 0.088937 0.050410
						CHANNELS 3 Zrotation Yrotation Xrotation
						End Site
						{
							OFFSET 0.000000 0.000000 0.000000
						}
					}
				}
				JOINT lclavicle
				{
					OFFSET 0.071702 0.114000 -0.018898
					CHANNELS 3 Zrotation Yrotation Xrotation
					JOINT lshoulder
					{
						OFFSET 0.122921 0.045205 -0.019046
						CHANNELS 3 Zrotation Yrotation Xrotation
						JOINT lelbow
						{
							OFFSET 0.255332 -0.015649 -0.022946
							CHANNELS 3 Zrotation Yrotation Xrotation
							JOINT lwrist
							{
								OFFSET 0.265709 0.012698 -0.007375
								CHANNELS 3 Zrotation Yrotation Xrotation
								End Site
								{
									OFFSET 0.000000 0.000000 0.000000
								}
							}
						}
					}
				}
				JOINT rclavicle
				{
					OFFSET -0.082954 0.112472 -0.023707
					CHANNELS 3 Zrotation Yrotation Xrotation
					JOINT rshoulder
					{
						OFFSET -0.113228 0.046853 -0.008472
						CHANNELS 3 Zrotation Yrotation Xrotation
						JOINT relbow
						{
							OFFSET -0.260127 -0.014369 -0.031269
							CHANNELS 3 Zrotation Yrotation Xrotation
							JOINT rwrist
							{
								OFFSET -0.269108 0.006794 -0.006027
								CHANNELS 3 Zrotation Yrotation Xrotation
								End Site
								{
									OFFSET 0.000000 0.000000 0.000000
								}
							}
						}
					}
				}
			}
		}
	}
}
MOTION
Frames: 16
Frame Time: 0.033333
0.612626 0.211473 0.993723 88.672945 0.688821 92.628354 1.782662 1.878666 2.682896 -3.027607 -5.629289 1.352805 3.479904 8.862017 -12.708710 0.000000 -0.000000 0.000000 -1.670699 -2.142330 -7.144436 1.535772 -4.639378 14.693735 3.886195 -7.907205 -9.856863 0.000000 -0.000000 0.000000 -0.799490 -0.339408 2.122558 0.836924 -1.327738 -3.499056 0.152590 -1.298461 1.623029 5.755475 4.908155 -6.149588 0.683885 -1.122670 9.154652 -26.499550 8.009096 -0.855641 -61.192520 -7.128506 9.948408 8.019611 -28.207923 9.524737 -2.684219 -2.391472 -1.132982 28.915408 -2.639538 -1.222697 59.001072 5.792836 14.590512 -13.100926 22.514119 -4.084749 5.842583 3.017473 -4.565107 
0.611237 0.210978 0.993654 88.508883 0.720723 92.469875 1.859815 1.814717 2.755699 -3.125845 -5.698390 1.465774 3.711820 9.059184 -12.517377 0.000000 -0.000000 0.000000 -1.643313 -2.009759 -7.056747 1.607383 -4.659467 14.601021 3.794395 -7.977799 -9.777638 0.000000 -0.000000 0.000000 -0.867705 -0.326363 2.255208 0.882966 -1.411316 -3.078409 0.221090 -1.277139 1.519213 5.561005 4.897938 -6.196733 0.809356 -1.082372 8.971795 -26.341899 7.453466 -0.544525 -61.305090 -7.427172 9.935086 8.280927 -28.194462 9.306170 -2.928901 -2.202632 -1.517218 28.702243 -2.208423 -0.862439 59.251919 5.905649 14.476185 -13.470285 22.722836 -4.236388 6.000062 2.819828 -4.906136 
0.610190 0.210374 0.993786 88.258506 0.690821 92.518932 1.827032 1.783072 2.715700 -3.124303 -5.630312 1.461931 3.730766 9.151708 -12.322092 0.000000 -0.000000 0.000000 -1.622549 -2.065201 -7.253334 1.584140 -4.424881 14.661367 3.832627 -7.872355 -9.696499 0.000000 -0.000000 0.000000 -0.902363 -0.287753 2.308817 0.879649 -1.455287 -2.952787 0.159996 -1.326703 1.622771 5.601673 4.820216 -6.212249 0.742647 -1.207268 9.122661 -26.305969 7.514886 -0.581240 -61.114871 -7.550554 10.003983 8.191883 -28.579307 9.185186 -2.749428 -2.168070 -1.474819 28.764713 -2.190926 -1.101577 59.199123 5.867374 14.615445 -13.335568 22.841845 -4.188904 6.088652 2.750605 -4.822488 
0.608694 0.209870 0.993978 88.146479 0.745552 92.524315 1.884248 1.799927 2.570103 -3.077523 -5.520938 1.594564 3.665126 9.158676 -12.377950 0.000000 -0.000000 0.000000 -1.518644 -2.064414 -7.290248 1.603863 -4.350751 14.518811 3.873832 -7.859839 -9.676441 0.000000 -0.000000 0.000000 -0.834847 -0.307947 2.605993 0.883785 -1.450750 -2.972984 0.174509 -1.406212 1.694053 5.566179 5.136510 -6.516243 0.789622 -1.125287 9.385135 -26.253220 7.490407 -0.750795 -61.116003 -7.726201 10.064915 8.165096 -28.527076 9.195814 -2.487545 -2.216379 -1.414736 28.764950 -2.296326 -1.182860 59.167160 5.917371 14.715059 -13.192585 23.035315 -4.214790 5.887513 2.777232 -4.994211 
0.606365 0.209486 0.994165 88.276695 0.703522 92.660802 1.841751 1.483102 2.153317 -3.063915 -5.459914 1.784384 3.715618 9.266721 -12.269347 0.000000 -0.000000 0.000000 -1.521837 -1.875152 -7.633228 1.609457 -4.460817 14.620785 3.855759 -8.097041 -9.580085 0.000000 -0.000000 0.000000 -0.890206 -0.408685 2.981837 0.904919 -1.588805 -3.168647 0.189407 -1.464944 1.621695 5.529176 5.125472 -6.543561 0.818182 -1.055842 9.292414 -26.260815 7.348053 -0.652464 -60.976991 -7.792688 10.072142 8.279228 -28.704139 9.091289 -2.522143 -2.188089 -1.702707 28.783550 -2.199707 -1.150615 59.216999 5.964962 14.765820 -13.252917 23.048397 -4.269588 5.767382 2.802719 -5.170405 
0.605374 0.208924 0.994232 88.067318 0.717266 92.741625 1.886927 1.505838 2.035625 -3.074004 -5.327749 1.730524 3.725017 9.343619 -12.274357 0.000000 -0.000000 0.000000 -1.497684 -1.866628 -7.879401 1.675778 -4.282370 14.753689 3.882602 -8.055872 -9.523664 0.000000 -0.000000 0.000000 -0.931319 -0.380086 3.021680 0.988595 -1.563049 -3.131779 0.228447 -1.540213 1.662083 5.630492 5.046246 -6.350591 0.703870 -0.946341 9.570456 -26.268712 7.269948 -0.683890 -61.006591 -7.774697 10.154364 8.458296 -28.635908 9.029539 -2.521836 -2.266910 -1.654643 28.762645 -2.199243 -1.039524 59.172898 6.008928 14.827244 -13.211094 23.038604 -4.310137 5.738225 2.750404 -5.271302 
0.604233 0.208351 0.994528 87.931374 0.673632 92.763363 1.903931 1.594454 1.921557 -3.149877 -5.249346 1.822264 3.746798 9.286446 -12.321835 0.000000 -0.000000 0.000000 -1.456061 -1.866388 -8.022809 1.599477 -4.132839 14.826194 3.921663 -7.973223 -9.512730 0.000000 -0.000000 0.000000 -0.999414 -0.342855 3.332462 1.018034 -1.558563 -3.149810 0.233078 -1.503382 1.601223 5.676477 4.960775 -6.256575 0.833376 -1.023325 9.502042 -26.304099 7.334828 -0.933545 -60.841245 -7.815469 10.163727 8.200075 -28.533529 9.144689 -2.595432 -2.253226 -1.458948 29.039067 -2.411963 -1.264409 58.984231 5.847206 14.787833 -13.277156 23.114003 -4.340217 5.824539 2.826203 -4.908691 
0.603514 0.208057 0.994611 88.050167 0.668220 92.568121 1.952723 1.707885 2.058335 -3.171582 -5.372394 1.872908 3.689909 9.253319 -12.264792 0.000000 -0.000000 0.000000 -1.499065 -1.514171 -7.748124 1.706534 -4.277725 14.707000 3.800807 -8.258047 -9.543429 0.000000 -0.000000 0.000000 -0.863173 -0.597452 3.628553 1.019652 -1.623159 -2.913879 0.179853 -1.529179 1.667361 5.692495 4.904855 -6.166114 0.856639 -1.105506 9.355708 -26.427965 7.295095 -0.819988 -60.717374 -8.044000 10.068254 8.239018 -28.575161 9.085329 -2.659757 -2.133810 -1.628380 29.026723 -2.229875 -1.470973 58.998139 5.815976 14.835233 -13.180490 22.960055 -4.380355 5.831432 2.770711 -5.038796 
0.602312 0.207788 0.994698 88.024902 0.649954 92.373018 1.968857 1.870031 2.143548 -3.171341 -5.480404 1.953795 3.586026 9.193935 -12.279900 0.000000 -0.000000 0.000000 -1.500927 -1.513068 -7.669434 1.689016 -4.286327 14.839767 3.829035 -8.205610 -9.560240 0.000000 -0.000000 0.000000 -0.727538 -0.678654 3.953974 1.048833 -1.697330 -2.685136 0.150559 -1.502364 1.810909 5.900980 4.946666 -5.926435 0.945580 -1.179385 9.496153 -26.669253 7.174025 -0.964520 -60.532651 -8.200645 10.090681 8.232139 -28.621140 9.058693 -2.218471 -2.339794 -1.319518 29.006452 -2.171342 -1.511439 58.912660 6.029624 14.774589 -13.160547 22.972028 -4.547820 5.650445 2.729090 -5.136385 
0.601408 0.207243 0.994649 87.980498 0.559665 92.186370 1.924038 1.780617 2.294395 -3.233439 -5.455355 1.950357 3.643779 9.295181 -12.141715 0.000000 -0.000000 0.000000 -1.606579 -1.469246 -7.540632 1.715500 -4.346917 14.896927 3.770506 -8.111299 -9.530391 0.000000 -0.000000 0.000000 -0.702689 -0.645059 4.085182 1.196502 -1.790533 -2.517284 0.125314 -1.580898 1.841201 5.998215 3.923261 -4.734528 1.463119 -2.023877 10.075935 -26.581627 6.860555 -0.636122 -60.810492 -8.384797 10.212275 8.558749 -28.399126 8.625637 -2.352259 -2.114610 -1.371185 28.794690 -1.858978 -1.099587 58.927853 5.949916 14.540271 -13.505048 23.054962 -4.893465 5.671220 2.690061 -5.274076 
0.601201 0.207057 0.994596 88.158664 0.507332 91.852731 1.921662 1.872668 2.664633 -3.254771 -5.587717 1.891070 3.698391 9.124763 -12.188616 0.000000 -0.000000 0.000000 -1.754895 -1.651201 -7.250062 1.751749 -4.692103 15.084514 3.772653 -7.707456 -9.515771 0.000000 -0.000000 0.000000 -0.563015 -0.799447 4.279491 1.199019 -1.983730 -2.173413 -0.069959 -1.463212 1.599489 4.836878 1.261323 -3.008085 3.042977 -5.405220 9.022083 -26.059336 6.495387 0.199031 -61.400479 -8.401311 10.160423 9.016140 -28.554775 8.232921 -2.752479 -1.639019 -1.659049 28.772444 -1.648473 -1.067999 58.973614 5.591253 13.662042 -13.703474 23.270588 -4.788220 6.265322 2.411358 -5.360838 
0.600191 0.206144 0.994669 88.039503 0.489241 91.722813 2.012577 2.083935 2.840612 -3.414891 -5.676834 1.786875 3.957111 9.007927 -12.207528 0.000000 -0.000000 0.000000 -1.761741 -1.781900 -7.348813 1.689753 -4.827936 15.345283 3.856680 -7.225908 -9.432768 0.000000 -0.000000 0.000000 -0.429748 -0.628789 4.106583 1.225768 -2.150752 -1.481599 -0.308789 -1.250796 1.494155 4.109338 -1.102366 -0.520637 5.391272 -8.513540 6.898540 -25.489929 6.084275 0.599355 -62.127285 -8.653091 10.191903 9.393514 -28.675952 8.359522 -2.956301 -1.191110 -1.879881 28.434942 -1.604597 -1.001874 59.587185 5.561340 12.869736 -14.144341 23.575435 -4.349915 6.690291 1.991189 -5.662506 
0.599537 0.205859 0.995096 88.093183 0.459455 91.759499 2.018825 2.144008 2.784028 -3.436530 -5.826057 1.719200 3.802325 9.063779 -12.063918 0.000000 -0.000000 0.000000 -1.731951 -1.792290 -7.411899 1.773030 -4.462996 15.257186 3.951929 -7.725175 -9.382435 0.000000 -0.000000 0.000000 -0.260834 -0.829213 4.101534 1.644549 -2.093557 -1.828861 -0.345659 -1.625501 1.910853 6.393302 -0.711181 0.554234 2.884788 -7.358423 13.325470 -26.202785 6.732595 0.593188 -61.606124 -9.077114 10.564123 8.916111 -28.461730 8.475972 -2.789517 -1.688219 -1.436776 28.564839 -2.034009 -1.137848 58.944960 6.052268 13.762534 -14.227756 23.273779 -5.277635 5.928327 2.259096 -5.581345 
0.598582 0.206030 0.995605 88.133727 0.403459 91.610116 1.952343 2.311719 2.835504 -3.404632 -5.858540 1.774175 3.777665 8.964963 -12.081593 0.000000 -0.000000 0.000000 -1.817192 -1.900166 -7.471764 1.805173 -4.551994 15.541118 3.841128 -7.646420 -9.525250 0.000000 -0.000000 0.000000 -0.185861 -0.992397 4.409366 2.042795 -2.119201 -1.885711 -0.314685 -1.756642 1.891615 7.377936 -2.387019 2.587153 1.344755 -8.371000 17.159513 -26.726515 7.303318 0.673771 -61.290932 -9.251332 10.702294 8.700324 -28.801745 8.274419 -3.153063 -1.499127 -0.722322 28.910003 -2.326778 -1.090537 57.902700 6.489435 13.704992 -14.456690 23.080851 -6.184724 5.831808 2.446909 -4.497754 
0.594563 0.205765 0.995831 88.242472 0.407830 91.455546 2.007627 2.037503 2.535806 -3.500436 -5.761399 2.154043 3.781806 9.093991 -12.042747 0.000000 -0.000000 0.000000 -1.776498 -1.589096 -7.666001 1.738758 -4.896010 15.755934 3.796349 -7.759636 -9.390415 0.000000 -0.000000 0.000000 -0.033249 -1.035539 5.208024 2.426914 -2.300371 -1.855876 -0.277371 -2.043731 1.942697 7.305440 -4.541112 5.151171 1.007509 -10.102315 18.736036 -26.654753 7.342479 0.990432 -61.440369 -9.708074 10.933755 8.614676 -29.325402 8.189304 -3.461143 -1.449019 -1.005826 28.815239 -2.144371 -1.225098 57.304293 7.094952 13.464426 -14.627425 23.186270 -6.687312 5.819759 2.361111 -4.552476 
0.592882 0.205499 0.995667 88.222889 0.353576 91.253186 2.018308 2.587513 2.644141 -3.514001 -6.171079 2.185171 3.851391 8.906304 -12.030893 0.000000 -0.000000 0.000000 -1.826036 -1.910656 -7.573727 1.701753 -4.934756 15.855243 3.771549 -7.390261 -9.371308 0.000000 -0.000000 0.000000 0.222610 -1.139604 5.218796 2.803295 -2.407586 -1.001943 -0.374523 -2.075656 2.320980 7.153117 -6.424924 7.588722 0.455154 -11.763693 20.078600 -26.701950 7.389855 1.307980 -61.425772 -10.103808 11.049026 8.587702 -30.452480 8.131675 -3.568348 -1.346465 -0.957512 28.912452 -2.216680 -1.329887 56.656217 7.754714 12.942336 -15.251329 23.765221 -7.527141 5.831866 2.176783 -4.154813 
